<?xml version="1.0" encoding="utf-8"?>
<!-- Generator: Adobe Illustrator 19.0.0, SVG Export Plug-In . SVG Version: 6.00 Build 0)  -->
<svg version="1.1" id="Layer_1" xmlns="http://www.w3.org/2000/svg" xmlns:xlink="http://www.w3.org/1999/xlink" x="0px" y="0px"
	 viewBox="0 0 512 512" style="enable-background:new 0 0 512 512;" xml:space="preserve">
<g id="XMLID_2_">
	<path id="XMLID_7_" d="M174.4,231.9l81.6-59.4l81.6,59.4L307,327.4H205.9L174.4,231.9z M256,0c34.3,0,67.7,6.5,99.2,20.4
		s58.4,31.5,81.6,54.7c23.2,23.2,40.8,50.1,54.7,81.6S512,221.7,512,256s-6.5,67.7-20.4,99.2s-31.5,58.4-54.7,81.6
		c-23.2,23.2-50.1,40.8-81.6,54.7C323.7,505.5,290.3,512,256,512s-67.7-6.5-99.2-20.4c-31.5-13.9-58.4-31.5-81.6-54.7
		c-23.2-23.2-40.8-50.1-54.7-81.6S0,290.3,0,256s6.5-67.7,20.4-99.2s31.5-58.4,54.7-81.6s50.1-40.8,81.6-54.7
		C188.3,6.5,221.7,0,256,0z M432.2,384c27.8-39,42.7-81.6,42.7-128.9v-0.9l-28.8,25l-68.6-64l17.6-91.8l38,3.7
		c-28.8-39-64.9-65.9-110.4-80.7l14.8,35.2L256,128l-81.6-45.4l14.8-35.2C143.8,62.1,106.7,88.1,78.8,128l38-3.7l17.6,91.8l-68.6,64
		l-28.8-25v0C37.1,302.4,51,346,79.8,384l8.3-38l92.8,11.1l39.9,84.4L187.4,461c22.3,7.4,44.5,11.1,68.6,11.1s46.4-3.7,68.6-11.1
		l-33.4-19.5l39.9-84.4l92.8-11.1L432.2,384z"/>
</g>
</svg>
